<?xml version="1.0" encoding="utf-8"?><svg xmlns="http://www.w3.org/2000/svg" xmlns:xlink="http://www.w3.org/1999/xlink"><symbol fill="none" viewBox="0 0 7 12" id="icon-arrow" xmlns="http://www.w3.org/2000/svg"><path fill-rule="evenodd" clip-rule="evenodd" d="M.71.145L0 .855l5.15 5.14L0 11.145l.71.71 5.85-5.86L.71.145z" fill="#fff"/></symbol><symbol fill="none" viewBox="0 0 16 18" id="icon-at" xmlns="http://www.w3.org/2000/svg"><path d="M14.44 5.615c-.38-.96-.9-1.78-1.57-2.46a6.891 6.891 0 00-2.34-1.59c-.9-.38-1.88-.57-2.93-.57-1.05 0-2.05.2-2.98.61-.93.41-1.73.97-2.41 1.68-.69.73-1.23 1.58-1.62 2.55-.39.97-.59 2.02-.59 3.14 0 1.19.19 2.27.57 3.26.38.99.9 1.84 1.58 2.55.67.7 1.47 1.25 2.39 1.64.93.39 1.93.58 3.02.58.64 0 1.22-.03 1.74-.09s1.06-.16 1.61-.28v-1.95c-.51.15-1.06.27-1.67.37-.6.09-1.16.14-1.68.14-.73 0-1.43-.13-2.1-.4a5.1 5.1 0 01-1.76-1.18c-.52-.53-.93-1.18-1.23-1.95-.28-.79-.43-1.67-.43-2.67 0-.94.16-1.79.47-2.56.32-.77.74-1.41 1.26-1.94.55-.54 1.14-.95 1.79-1.23.64-.27 1.33-.41 2.05-.41.77 0 1.48.12 2.14.37.66.25 1.23.63 1.72 1.14.48.51.86 1.14 1.13 1.89.27.75.4 1.63.4 2.63 0 .57-.06 1.13-.17 1.68-.11.55-.26 1.03-.44 1.43h-1.38v-7.41l-2.02.01v.56c-.17-.16-.4-.33-.71-.48-.31-.16-.65-.24-1.05-.24-.49 0-.96.11-1.41.34a3.7 3.7 0 00-1.17.91c-.35.42-.63.92-.84 1.51-.2.58-.31 1.22-.31 1.93 0 .69.08 1.33.25 1.92.17.59.4 1.07.68 1.45.29.39.64.69 1.05.9.4.21.84.31 1.31.31.32 0 .57-.02.75-.05.18-.04.38-.09.6-.17.19-.07.36-.15.52-.25.16-.1.31-.2.47-.31l.14.71h4.49c.35-.56.64-1.29.89-2.2.24-.9.36-1.77.36-2.61 0-1.18-.19-2.25-.57-3.21zm-6.22 6.13c-.24.13-.51.19-.83.19-.61 0-1.04-.23-1.31-.7s-.4-1.18-.4-2.14c0-.87.16-1.56.48-2.09.32-.52.78-.79 1.37-.79.27 0 .51.03.72.09.21.06.44.15.69.28v4.62c-.24.24-.48.42-.72.54z" fill="#fff"/></symbol><symbol fill="none" viewBox="0 0 68 68" id="icon-clock" xmlns="http://www.w3.org/2000/svg"><g clip-path="url(#cclip0)" fill-rule="evenodd" clip-rule="evenodd"><path d="M22.694 62.06l-6.722-5.16C34.262 67.219 65.058 19.227 44.58 7.19l7.504 3.283c20.79 13.913-11.1 63.31-29.389 51.586z" fill="#4B218A"/><path d="M35.043 11.569c-11.099 6.409-20.01 21.885-20.01 34.703 0 12.819 8.911 17.977 20.01 11.568 11.099-6.41 20.009-21.885 20.009-34.704 0-12.818-8.91-17.976-20.01-11.567z" fill="#E6EAEB"/><path d="M39.42.155L39.887 0c2.814-.156 5.003.156 7.504 1.407l6.878 3.908c-2.345-1.094-4.377-1.563-6.878-1.407h-.625c-5.315.625-9.849 3.127-14.07 6.253l-.468.625c-6.097 5.003-10.63 11.1-14.226 17.977l-.312.782c-3.752 7.816-6.253 16.883-4.846 25.637l.156.625c.938 4.22 2.501 7.66 5.94 10.005l.47.312-7.035-4.064-.47-.156c-3.438-2.658-5.002-6.097-5.94-10.161l-.156-.626c-1.25-8.754 1.25-17.664 5.003-25.48l.312-.782c3.596-6.878 8.129-12.974 14.07-17.977l.624-.469C29.884 3.282 34.261.781 39.42.155z" fill="#5D2FA5"/><path d="M22.538 60.655l-6.879-4.065.157.157.156.156 6.878 3.908h-.156l-.156-.156zm28.92-49.557L44.58 7.19l-.156-.156h-.157l6.879 3.908.156.156h.156z" fill="#2C3E50"/><path d="M19.568 25.794c4.534-7.816 10.63-14.538 17.508-18.446 6.878-3.908 12.975-4.377 17.508-1.72 4.533 2.658 7.191 8.13 7.191 16.102 0 7.972-2.814 16.726-7.19 24.386-4.534 7.816-10.63 14.538-17.509 18.446-6.722 4.064-12.974 4.377-17.508 1.72-4.377-2.502-7.19-8.13-7.19-15.946 0-7.816 2.813-16.726 7.19-24.542zM51.458 11.1c-1.876-1.095-4.065-1.564-6.566-1.25a20.423 20.423 0 00-7.66 2.657c-2.813 1.563-5.314 3.751-7.816 6.252a46.859 46.859 0 00-6.565 8.91c-1.876 3.284-3.44 6.723-4.377 10.162-.938 3.282-1.563 6.721-1.563 9.848 0 3.126.625 5.94 1.563 8.129 1.094 2.345 2.501 3.908 4.377 5.002 1.876 1.094 4.064 1.563 6.565 1.25 2.345-.156 5.003-1.094 7.817-2.657 2.813-1.563 5.314-3.752 7.816-6.253a46.867 46.867 0 006.565-8.91c1.72-3.283 3.283-6.722 4.377-10.161.938-3.283 1.563-6.722 1.563-9.848 0-3.127-.469-5.94-1.563-8.129-1.094-2.189-2.657-3.908-4.533-5.002z" fill="#7D46BC"/><path d="M34.104 41.425l-.469-.312L48.33 15.476l.626.313-14.851 25.636z" fill="#4B218A"/><path d="M35.202 42.05l-1.094-.625 14.85-25.636 1.095.469-2.658 4.69L35.202 42.05z" fill="#7D46BC"/><path d="M39.267 31.89l-.47-.156-.78.156.312.156.938-.156z" fill="#C43E3F"/><path d="M38.33 32.047l-.313-.157-6.878 26.106.469.156 6.722-26.105z" fill="#9C5500"/><path d="M31.605 58.152l.781-.156 6.878-26.106-.938.157-6.721 26.105z" fill="#FFA800"/><path d="M32.544 10.474l-6.878-3.908.156-.157C30.043 3.283 34.576.625 39.892 0l6.877 3.908c-5.158.625-9.848 3.126-13.912 6.253l-.313.313zm-14.692 18.76l-.157.312-.312.782c-3.596 7.66-5.94 16.414-4.69 24.855v.47l-6.722-4.065v-.47l-.156-.624c-1.094-8.598 1.25-17.508 5.158-25.325l6.879 4.065z" fill="#4B218A"/></g><defs><clipPath id="cclip0"><path fill="#fff" transform="translate(5.5)" d="M0 0h56.432v68H0z"/></clipPath></defs></symbol><symbol fill="none" viewBox="0 0 15 14" id="icon-close" xmlns="http://www.w3.org/2000/svg"><path fill-rule="evenodd" clip-rule="evenodd" d="M8.207 6.793L14 1l-.707-.707L7.5 6.086 1.707.293 1 1l5.793 5.793-6.5 6.5L1 14l6.5-6.5L14 14l.707-.707-6.5-6.5z" fill="#fff"/></symbol><symbol fill="none" viewBox="0 0 144 101" id="icon-crow" xmlns="http://www.w3.org/2000/svg"><path d="M70.085 0c.871.158 1.754-.04 2.625.096 1.693.141 3.19.815 4.623 1.677.246.147.123.25.034.386a646.51 646.51 0 01-1.196 1.824c-.34.518-.247 1.126-.125 1.63.073.302.666.077 1.023.102.316.021.636-.031.954-.022.303.007.47-.12.589-.398.217-.504.472-.99.72-1.506 3.617 4.285 3.145 8.373.237 11.699-.284-.3-.618-.564-.84-.903-.685-1.036-1.623-1.396-2.817-1.183a.16.16 0 01-.057 0c-.292-.046-.394.064-.366.369.063.688.111 1.38.134 2.07.014.461.212.702.638.908 2.407 1.163 4.01 3.054 4.857 5.578.934 2.785.685 5.554-.255 8.28-.185.535.013.579.422.616 3.739.33 7.448.86 11.13 1.583 5.245 1.03 10.383 2.44 15.334 4.477.385.158.588.085.829-.232 1.926-2.517 4.131-4.728 6.995-6.183 1.861-.945 3.236-2.372 4.254-4.171.054-.095.048-.284.264-.22-.049 2.139.302 4.237.76 6.315.771 3.492 1.362 7.001 1.153 10.596-.022.393.115.592.44.788a30.472 30.472 0 016.271 5.046c.812.848 1.546 1.764 2.299 2.693a17.265 17.265 0 013.203-3.007c3.044-2.206 6.426-3.928 9.253-6.444.044.265-.118.465-.218.685-.028.107-.051.216-.087.32a16328.07 16328.07 0 01-6.81 19.455 2.19 2.19 0 00-.112 1.027c.1.853.181 1.711.144 2.575-.1 2.346-1.16 3.482-3.479 3.69-.312.028-.447.178-.576.429a7005.46 7005.46 0 01-7.611 14.664c-.148.285-.156.53-.056.843.31.965.454 1.945.282 2.975-.28 1.676-1.353 2.885-3.022 3.248-.297.065-.424.233-.54.484-.946 2.06-1.904 4.117-2.857 6.176-.102.221-.165.439-.507.376-.752-.138-1.511-.24-2.267-.353-3.191-.476-6.377-.988-9.575-1.416a413.517 413.517 0 00-9.56-1.17 287.15 287.15 0 00-11.78-1.071 202.42 202.42 0 00-12.341-.48c-3.782-.027-7.564.03-11.34.254-2.2.13-4.4.331-6.595.543-2.175.209-4.35.431-6.515.719-2.7.358-5.393.758-8.08 1.198-2.904.474-5.799 1.009-8.696 1.528-1.502.268-3.001.56-4.501.839l-.371-.019c-1.062-1.857-2.125-3.715-3.186-5.573-.121-.213-.237-.403-.508-.469-1.276-.312-2.03-1.192-2.467-2.37-.459-1.231-.413-2.494-.087-3.744.08-.306.035-.53-.1-.79-2.59-4.985-5.179-9.97-7.753-14.963-.179-.347-.41-.518-.771-.619-1.883-.526-2.991-1.759-3.11-3.695-.096-1.582-.29-3.09-.884-4.594C5.85 58.882 4.527 54.462 2.8 50.192c-.845-2.103-1.697-4.2-2.799-6.184.013-.134.028-.268.042-.401.37.175.738.353 1.11.525 4.68 2.164 8.735 5.147 12 9.16.3.368.415.214.613-.067 2.324-3.284 5.091-6.112 8.536-8.235.254-.156.29-.342.283-.599-.06-1.954.272-3.865.627-5.776.436-2.348.868-4.697.948-7.095.054-1.614.005-3.229-.021-4.879.066.056.103.07.113.096 1.13 2.99 2.985 5.387 5.698 7.124 1.448.927 2.824 1.959 3.977 3.262.35.396.534 1.1 1.063 1.13.487.029.997-.348 1.495-.552 8.058-3.313 16.389-5.503 25.098-6.17.776-.06 1.565-.006 2.375-.196-.515-1.025-.983-2.032-1.313-3.098-.738-2.389-.777-4.738.405-7.006.885-1.7 2.211-3.03 3.834-3.996.866-.516 1.222-1.108 1.085-2.053-.067-.465.3-1.087-.072-1.35-.336-.24-.94-.09-1.423-.137-.385-.038-.595.085-.75.467-.385.95-.83 1.877-1.285 2.892-1.065-1.907-1.871-3.787-2.129-5.878-.309-2.51.295-4.764 1.77-6.804.153-.211.234-.214.406-.026.402.444.828.866 1.24 1.3.145.154.29.262.527.256a25.47 25.47 0 011.853 0c.355.015.345-.112.274-.39-.334-1.329-.83-2.538-2.16-3.194-.163-.08-.296-.227-.45-.331-.222-.15-.221-.239.033-.371A20.96 20.96 0 0168.245.534C68.85.31 69.518.328 70.085 0zM28.161 79.796c-.582-.015-1.145-.153-1.71-.273-2.484-.53-4.363-1.842-5.436-4.203a19.539 19.539 0 00-.808-1.59c-.499-.871-1.026-1.728-1.545-2.587-.089-.148-.213-.288-.402-.24-.21.052-.18.252-.191.417-.026.397.02.787.163 1.156.61 1.585 1.34 3.11 2.326 4.497.731 1.03 1.612 1.915 2.724 2.54 2.046 1.15 4.248 1.298 6.516.975.304-.044.615-.047.895-.256.66-.491 1.324-.973 1.92-1.543 1.368-1.308 2.363-2.826 2.67-4.73.42-2.603-.428-4.928-1.59-7.178-.11-.21-.29-.388-.457-.564-.147-.156-.341-.258-.554-.16-.19.09-.206.29-.22.482-.047.699.073 1.368.289 2.034.521 1.602.907 3.234.836 4.935-.088 2.075-.943 3.733-2.726 4.86-.108.067-.22.228-.402.112.014-1.093-.253-2.13-.661-3.143-.708-1.763-1.796-3.301-2.855-4.855-1.093-1.601-2.21-3.183-3.117-4.905-.576-1.091-.843-2.3-1.368-3.408-.698-1.473-1.246-2.994-1.392-4.626-.155-1.735.254-3.29 1.557-4.54.813-.779 1.78-1.279 2.82-1.654.277-.1.362-.174.203-.46-.26-.47-.476-.965-.724-1.478-3.016 2.486-5.917 5.036-8.597 7.988.308-.027.475-.042.643-.055 1.47-.126 2.62.383 3.401 1.676.377.624.679 1.28.979 1.94 1.38 3.034 2.06 6.276 2.801 9.498.769 3.352 1.923 6.53 4.115 9.246l-.103.092zm64.064-5.595a17.024 17.024 0 001.03-3.412c.531-2.784.351-5.588.27-8.39-.08-2.705-.282-5.408.5-8.069.827-2.814 2.015-5.41 4.192-7.45 2.271-2.128 5.093-2.47 7.526-.935.384.243.741.53 1.11.795l.18-.038c0-1.19-.021-2.38.013-3.57.011-.383-.097-.539-.451-.686-4.04-1.682-8.257-2.72-12.552-3.456-4.374-.752-8.788-1.083-13.228-1.084-.332 0-.35.071-.288.372.22 1.097.158 2.195-.102 3.278-.193.806-.506 1.573-.912 2.367.77-.307 1.459-.624 2.173-.857 1.595-.52 3.224-.813 4.9-.44 2.453.546 3.936 2.162 4.752 4.446 1.209 3.388.934 6.73-.367 10.042-1.065 2.714-2.342 5.346-3.156 8.158-.689 2.378-.969 4.784-.64 7.247.082.626.078.632-.612.506-2.86-.522-4.813-2.059-5.547-4.96-.486-1.924-.495-3.885-.46-5.85.017-.86-.349-1.555-.958-2.12-.563-.522-1.231-.438-1.694.177-.42.556-.569 1.208-.61 1.887-.13 2.128.367 4.15 1.146 6.1 2.827 7.08 9.907 10.273 16.722 7.428 3.899-1.627 6.794-4.348 8.034-8.541.296-1.004.516-2.034.381-3.09-.069-.54-.078-1.218-.739-1.377-.65-.156-.934.438-1.199.897-.631 1.096-.945 2.301-1.065 3.553-.478 4.94-4.117 6.922-8.349 7.072zm-40.024.087c-.727-.093-1.373-.154-2.01-.26-3.51-.593-5.65-2.585-6.327-5.96-.222-1.11-.298-2.25-.737-3.311-.228-.552-.468-1.103-.882-1.543-.548-.583-1.075-.481-1.359.262-.146.384-.224.79-.215 1.204.037 1.59.47 3.084 1.148 4.506 2.006 4.203 7.62 7.956 13.048 7.458 2.734-.25 5.13-1.221 7.167-3.036 3.035-2.705 4.535-6.175 4.886-10.17.093-1.061.008-2.139-.499-3.114-.454-.876-1.172-.923-1.73-.11-.414.602-.686 1.262-.65 2.031.087 1.857-.052 3.694-.579 5.487-1.029 3.504-3.54 5.798-6.833 6.234 0-.094-.012-.188.002-.278.39-2.533.13-5.028-.462-7.498-.674-2.808-1.768-5.476-2.76-8.176-1.204-3.28-1.88-6.588-.942-10.062.672-2.491 1.936-4.479 4.534-5.305 1.894-.602 3.763-.299 5.6.296.638.205 1.252.482 1.946.753-.987-1.826-1.427-3.676-1.081-5.67.045-.26-.015-.337-.312-.329-2.151.054-4.29.233-6.428.482-3.335.39-6.623 1.027-9.883 1.82-3.196.777-6.339 1.74-9.449 2.807-.196.067-.45.08-.411.413.148 1.276.05 2.567.244 3.88.19-.083.36-.151.525-.23 1.054-.491 2.161-.826 3.319-.913 2.788-.208 4.992.922 6.616 3.135 2.056 2.805 2.965 6.014 3.09 9.462.084 2.321-.11 4.64-.114 6.961-.002 1.61.064 3.212.341 4.8a17.755 17.755 0 001.197 3.974zm62.047 3.475c-2.117-1.007-3.282-2.552-3.266-4.893.014-2.085.591-4.041 1.322-5.963.14-.366.29-.727.364-1.109.045-.234.06-.485-.179-.662-.239-.175-.44-.013-.618.084a2.3 2.3 0 00-.942.938c-.674 1.246-1.242 2.543-1.582 3.92-.442 1.792-.536 3.588.266 5.312 1.327 2.85 4.221 4.51 7.474 4.406 1.882-.06 3.61-.517 5.084-1.724 1.481-1.213 2.422-2.822 3.201-4.534.413-.909.953-1.78 1.027-2.811.019-.255.174-.648-.155-.742-.3-.084-.446.3-.57.532-.714 1.35-1.637 2.577-2.306 3.955-1.024 2.114-2.767 3.218-5.098 3.593.133-.588.262-1.125.374-1.667.799-3.86 1.525-7.739 2.81-11.48.817-2.375 1.722-4.714 3.021-6.878.53-.883 1.338-1.396 2.362-1.51.475-.055.961-.01 1.428-.01.02-.047.038-.073.033-.08-2.255-3.125-5.213-5.493-8.296-7.728-.154-.113-.216-.069-.286.082-.312.682-.63 1.36-.955 2.06.272.058.492.096.708.152 1.137.292 2.187.753 2.977 1.66 1.235 1.417 1.422 3.113 1.065 4.846-.592 2.875-1.752 5.563-3.113 8.146-1.122 2.13-2.662 4.006-3.956 6.033-1.175 1.838-2.143 3.754-2.194 6.072z" fill="#fff"/></symbol><symbol fill="none" viewBox="0 0 54 68" id="icon-cup" xmlns="http://www.w3.org/2000/svg"><g clip-path="url(#fclip0)" fill-rule="evenodd" clip-rule="evenodd"><path d="M50.453 5.636L47.543 4l.183.182.181.182.182.181.182.182.182.182v27.818l-.182.182-.182.364-.182.363-.181.364-.182.364-.182.363-.182.364-.182.364-.363.181-.182.364-.364.182-.363.182-.182.181-6.182 3.637V46l2.727-1.636v-2.546l6.182-3.636.364-.182.363-.182.364-.182.364-.181.181-.364.182-.364.182-.363.182-.364.182-.364.181-.363.182-.364v-.364l.182-.363V6.364h-.182V6l-.181-.182-.182-.182h-.182zm-11.091-.363L47.544.545l.363-.181.364-.182h1.091V0h.182l.182.182 2.909 1.636h-2L50.27 2l-8.182 4.727v2.546l-2.727-1.455V5.273z" fill="#9C5500"/><path d="M42.087 9.457L48.27 5.82c.728-.363 1.455-.545 2-.181.546.363.91.909.91 2v25.636c0 .909-.364 2-.91 2.909-.363.727-1.09 1.636-2 2l-6.181 3.636v2.546l8.181-4.727a6.42 6.42 0 002.364-2.546c.545-1.09.91-2.182.91-3.273V4.002c0-1.09-.365-1.818-.91-2.182-.546-.363-1.455-.363-2.364.182L42.088 6.73v2.728z" fill="#FFA800"/><path d="M47.364 54.001v1.637C47 58.91 44.636 62 40.454 64.547c-9.272 5.273-26.727 3.818-33.454 0-6-3.636-6.364-5.273-6.727-8V15.092h47.09v38.91z" fill="#9C5500"/><path d="M47.361 54.001v1.637c-.363 3.273-2.727 6.363-6.909 8.909-7.636 4.364-20.909 4.182-29.09 1.818V15.092h36v38.91z" fill="#FFA800"/><path d="M7.183 5.455c9.273-5.273 24.182-5.273 33.273 0 9.272 5.272 9.272 14 0 19.273C31.183 30 16.274 30 7.183 24.727c-9.273-5.273-9.273-14 0-19.273zm2 1.09C1 11.274 1 18.728 9.183 23.456c8.182 4.727 21.273 4.727 29.273 0 8.181-4.727 8-12.182 0-16.91-8-4.545-21.273-4.545-29.273 0z" fill="#E6EAEB"/><path d="M9.18 6.546c8.18-4.727 21.272-4.727 29.272 0 8.182 4.728 8.182 12.182 0 16.91-8.182 4.727-21.273 4.727-29.273 0-8.182-4.546-8.182-12.182 0-16.91z" fill="#BDBDBD"/><path d="M29.73 3.635c3.272.546 6.181 1.455 8.726 2.91 8 4.545 8.182 12 .364 16.727h-9.09V3.636z" fill="#9FB2B3"/><path d="M10.997 5.635c3.091-1.454 6.546-2.182 10.182-2.545v16H10.997V5.635z" fill="#E6EAEB"/><path d="M43.908 18.002c-.727 2-2.545 4-5.455 5.636-8.181 4.727-21.272 4.727-29.272 0-2.727-1.636-4.546-3.636-5.455-5.636.91-2 2.728-4 5.455-5.636 8.182-4.728 21.273-4.728 29.273 0 2.727 1.636 4.727 3.636 5.454 5.636z" fill="#967B62"/><path d="M43.004 19.637c-1.09 1.455-2.545 2.728-4.545 4-8.182 4.728-21.273 4.728-29.273 0-2-1.272-3.455-2.545-4.546-4 .546-2.181 2.364-4.363 5.455-6.181 7.636-4.364 19.818-4.364 27.454 0 3.091 1.818 4.91 4 5.455 6.181z" fill="#E3CCA4"/><path d="M41.547 21.453c-.91.727-1.818 1.454-3.091 2.182-1.455.909-3.273 1.636-5.273 2.181 1.455-.909 2.727-1.818 3.636-2.909 1.455-1.636 2-3.272 1.637-5.09 0-.364-.182-.728-.364-1.091-.182-.546-.545-1.091-1.09-1.637 2.908 1.818 4.363 4 4.545 6.364zm-17.455 5.636h.182c2.364-.545 4.546-1.09 6.182-1.818 2.182-.91 4-2.182 5.09-3.454.91-1.273 1.455-2.546 1.273-3.637-.181-.182-.181-.545-.363-.727-.727-1.636-2.91-3.091-6-3.818-3.091-.91-7.091-1.273-11.091-.728-2 .364-3.818.728-5.455 1.455-1.454.727-2.545 1.454-3.272 2.182-.546.727-.91 1.454-.728 2 0 .182 0 .363.182.545.364 1.091 1.818 1.818 3.637 2.364a19.24 19.24 0 007.272.364c1.273-.182 2.364-.546 3.273-.91.91-.363 1.455-.909 2-1.272.364-.364.546-.728.364-1.091v-.182c-.182-.545-1.091-1.091-2-1.273-1.455-.363-3.091-.363-4.546-.182-.727.182-1.272.182-1.818.546-.545.182-.909.364-1.09.545-.183.182-.183.364-.183.546 0 .182.364.363.91.545.727.182 1.818.182 2.545 0 .545 0 .909.364 1.09.728 0 .545-.363.909-.726 1.09-1.091.182-2.364.182-3.273-.181-1.091-.182-1.818-.728-2.182-1.455 0-.182-.182-.364-.182-.545 0-.546.182-1.273.546-1.819.363-.545.909-.909 1.818-1.272.545-.364 1.454-.546 2.363-.546 1.819-.182 3.637-.182 5.273.182 1.637.364 2.727 1.09 3.273 2.364.182.181.182.545.182.727.181.909-.182 1.818-.91 2.545-.545.728-1.454 1.273-2.545 1.819-1.09.363-2.363.727-3.818.909-2.91.363-5.818.181-8.182-.364-2.364-.727-4.182-1.818-4.909-3.454 0-.364-.182-.546-.182-.91-.182-.727 0-1.272.182-2-1.273 1.455-2 2.91-2 4.546.91.727 1.818 1.454 2.91 2.182 4 2.363 9.454 3.454 14.908 3.454z" fill="#B19377"/><path d="M42.997 62.91c-.727.545-1.636 1.09-2.545 1.636-2 1.09-4.182 2-6.727 2.545V27.455c2.363-.727 4.727-1.636 6.727-2.727.909-.546 1.818-1.091 2.545-1.637V62.91z" fill="#FFB830"/></g><defs><clipPath id="fclip0"><path fill="#fff" transform="translate(.273)" d="M0 0h53.455v68H0z"/></clipPath></defs></symbol><symbol fill="none" viewBox="0 0 68 68" id="icon-dollar" xmlns="http://www.w3.org/2000/svg"><g clip-path="url(#gclip0)" fill-rule="evenodd" clip-rule="evenodd"><path d="M16.028 67.37L62.45 40.36c2.336-1.257 4.206-4.555 4.206-7.225V7.38c0-2.67-1.87-3.769-4.206-2.356L16.028 31.88c-2.181 1.256-4.05 4.554-4.05 7.224v25.912c0 2.67 1.869 3.77 4.05 2.356z" fill="#FACC4D"/><path d="M63.694 8.167L58.086 4.87l.155.314.156.157.156.314V31.41l-.156.47-.156.315-.155.314-.156.314-.156.314-.312.314-.311.157-1.402.942-1.558.786-1.402.785-1.402.942-1.558.785-1.402.943-1.558.785-1.402.785-1.402.942-1.557.786-1.402.942-1.558.785-1.402.942-1.402.785-1.558.786-1.402.942-1.402.785-1.558.943-1.402.785-1.558.785-1.402.942-1.402.785-1.557.943-1.402.785-1.402.942-1.558.785-1.402.786-1.558.942-1.402.785-1.402.942-1.558.786-1.402.785-.311.157-.312.157-.156-.157h-.156l5.453 3.14.155.158h.469l.311-.157 1.402-.943 1.558-.785 1.402-.942 1.558-.785 1.402-.785 1.402-.943 1.558-.785 1.402-.942 1.558-.785 1.402-.786 1.402-.942 1.557-.785 1.402-.942 1.402-.786 1.558-.942 1.402-.785 1.558-.785 1.402-.943 1.402-.785 1.558-.942 1.402-.785 1.402-.785 1.558-.943 1.402-.785 1.557-.942 1.403-.785 1.401-.786 1.558-.942 1.402-.785 1.402-.942 1.558-.786 1.402-.942.312-.157.311-.157.156-.314.312-.314.155-.471v-.314l.156-.472V8.795l-.156-.314v-.157l-.155-.157z" fill="#B95E00"/><path d="M65.41 4.554L57.931.314 57.31 0h-.779l-.779.157-.779.471L8.55 27.483l-.311.314-.468.314-.311.314-.468.471-.311.314-.312.471-.311.471-.312.472-.311.47-.156.629-.312.471-.155.471-.156.471v.628l-.156.472v26.383l.156.942.156.785.467.629.467.47 7.478 4.24-.623-.313-.312-.628-.312-.786V38.005l.156-.472.156-.47.156-.629.155-.47.312-.472.312-.471.311-.471.312-.471.311-.472.312-.47.467-.315.312-.314.467-.314.312-.314L62.45 4.868l.779-.314.778-.157h.78l.622.157z" fill="#B95E00"/><path d="M16.028 67.371L62.45 40.36c2.336-1.257 4.206-4.555 4.206-7.224V7.223c0-2.67-1.87-3.769-4.206-2.355L16.028 31.879c-2.181 1.256-4.05 4.555-4.05 7.224v25.912c0 2.67 1.869 3.77 4.05 2.356zM62.606 8.166c.778-.472 1.401 0 1.401.942v25.127c0 .942-.623 2.041-1.402 2.513-15.577 9.108-31.155 18.217-46.733 27.168-.78.471-1.402 0-1.402-.942V37.847c0-.942.623-2.199 1.402-2.513 15.578-8.951 31.156-18.06 46.733-27.168z" fill="#FFA800"/><path d="M62.607 8.166v25.285c0 .942-.623 2.041-1.402 2.512C45.627 45.072 30.05 54.18 14.472 63.132V37.848c0-.942.623-2.199 1.402-2.513 15.578-8.951 31.155-18.06 46.733-27.169z" fill="#E9A219"/><path d="M39.553 33.608l-.779-.471.468-.157.467-.315.467-.157.468-.157.311-.157.468-.157.311-.157.312-.157.779.471h-.312l-.312.157-.467.157-.312.157-.467.315-.467.157-.468.314-.467.157z" fill="#B95E00"/><path d="M42.824 32.194l-.78-.471h.312l.312-.157h.467l.312.157h.156l.311.157.78.471-.313-.157-.155-.157h-1.091l-.311.157zM37.835 47.74l-.78-.471v-2.042l.78.471v2.042zm-4.984-.785l-.779-.471h-.155l-.156-.157-.156-.157v-.157l-.156-.314.78.47v.158l.155.157.156.157.156.157.155.157z" fill="#B95E00"/><path d="M32.231 46.171l-.778-.471-.156-.157v-.314l-.156-.157v-.314l-.156-.315v-1.099l.78.314v1.414l.155.314v.314l.156.314.155.157z" fill="#B95E00"/><path d="M31.764 43.658l-.779-.314v-.785l.78.47v.629z" fill="#B95E00"/><path d="M31.764 43.031l-.779-.47 2.804-1.571.78.47-2.805 1.571zm3.271.784l-.78-.47h.157v.156h.623v-.157h.311l.78.471h-1.091z" fill="#B95E00"/><path d="M36.123 43.815l-.78-.471.157-.157h.311l.156-.157.312-.157.155-.157h.312l.311-.157.78.314-.312.157-.312.157-.311.157-.156.157h-.156l-.312.157h-.155v.157z" fill="#B95E00"/><path d="M37.835 42.874l-.78-.314v-5.653l.78.47v5.497z" fill="#B95E00"/><path d="M33.01 38.632l-.778-.472h-.156l-.156-.157-.156-.157v-.157l-.155-.157.779.471v.157l.155.157.156.157.156.158h.156z" fill="#D19917"/><path d="M32.384 38.004l-.779-.47-.156-.315v-.157l-.155-.314v-.628l-.156-.314v-1.884l.155-.472v-.471l.156-.471.156-.471.156-.471.156-.314.779.47-.312.315v.47l-.156.472-.156.471v.471l-.155.471v2.199l.155.314v.628l.156.157.156.314z" fill="#B95E00"/><path d="M32.693 31.724l-.779-.471.156-.472.156-.314.311-.314.156-.47.312-.315.311-.314.312-.314.311-.314.623.47-.311.315-.156.314-.312.314-.311.314-.156.314-.312.472-.155.314-.156.47zm1.874-2.829l-.623-.471.312-.157.311-.314.312-.314.467-.315.312-.157.467-.314.468-.314.467-.314.779.471-.468.314-.467.157-.467.314-.468.314-.311.315-.312.314-.467.157-.312.314z" fill="#B95E00"/><path d="M37.835 26.698l-.78-.471V24.5l.78.47v1.728zm0-1.728l-.78-.471 1.714-.942.78.314-1.714 1.099zm1.718.629l-.779-.314.468-.315.623-.314.311-.157.468-.157.467-.157.312-.157.311-.157h.312l.779.314-.312.157-.312.157-.467.157-.312.157-.467.157-.467.157-.468.315-.467.157z" fill="#B95E00"/><path d="M42.824 24.185l-.78-.314.312-.157h.468l.311.157h.156l.779.471-.312-.157h-.934zm-.316 5.339l-.779-.471v-.942l-.156-.314v-.314l-.155-.157-.156-.157.779.47.156.158v.157l.155.157v.471l.156.314v.628zM39.553 41.93l-.779-.47.623-.315.312-.157.311-.314.312-.157.156-.157.311-.314.156-.157.312-.314.155-.157.78.314-.312.314-.156.157-.156.314-.311.157-.312.314-.311.157-.312.314-.312.158-.467.314z" fill="#B95E00"/><path d="M42.2 39.732l-.779-.314.156-.314.156-.314v-.157l.155-.314v-.472l.156-.314v-1.57l-.156-.157v-.314l-.155-.157v-.157l.623.47.155.158v.157l.156.157v.314l.156.314v1.257l-.156.314v.314l-.156.314-.155.314v.314l-.156.157z" fill="#B95E00"/><path d="M42.356 35.649l-.623-.471h-.156l-.156-.157.779.47.156.158zm-7.01-.315l-.778-.47h.155l.78.47h-.157z" fill="#FACC4D"/><path d="M35.5 35.334l-.78-.471.156.157.312-.157h.467l.312-.157.311-.157.312-.157.467-.314.78.47-.468.315-.312.157-.311.157h-.312l-.311.157h-.624z" fill="#B95E00"/><path d="M37.835 34.551l-.78-.47v-5.026l.78.47v5.026z" fill="#B95E00"/><path d="M39.55 28.582v5.183c1.247-.785 2.337-1.413 3.272-1.57.779-.315 1.558-.158 2.025.313.467.472.779 1.414.779 2.827 0 1.414-.156 2.67-.623 3.77-.312.942-.935 1.884-1.714 2.67-.779.941-1.87 1.727-3.271 2.669l-.468.314v2.041l-1.713.943V45.7c-.935.628-1.87.942-2.493 1.256-.778.158-1.402.315-1.869.158-.623 0-.935-.314-1.246-.943-.312-.47-.467-1.413-.467-2.512v-.629l2.804-1.57c0 .785 0 1.413.155 1.727.156.315.312.629.623.629.312 0 .468 0 .78-.157.31-.157.934-.471 1.713-.786v-5.496c-1.09.471-2.025.942-2.648 1.1-.623.313-1.247.313-1.714.313-.467 0-.935-.314-1.246-.942-.156-.471-.312-1.256-.312-2.513 0-1.413.312-2.67.78-3.769.466-1.1 1.09-1.884 2.024-2.67.78-.785 1.87-1.57 3.116-2.198V24.97l1.713-1.099V25.6c1.403-.786 2.493-1.257 3.272-1.414.779-.157 1.402 0 1.713.471.468.471.623 1.57.623 3.141l-2.648 1.57v-.314c0-.942-.155-1.413-.467-1.57-.312-.157-.935 0-1.714.471l-.779.628zm0 7.696v5.496l.468-.314c.934-.471 1.558-1.1 2.025-1.727.467-.629.623-1.57.623-2.513 0-.785-.156-1.414-.311-1.57-.156-.158-.468-.315-.935-.158-.312.157-1.09.472-1.87.786zm-1.713-6.753l-.467.314c-.623.314-1.09.628-1.558.942-.312.314-.623.628-.78 1.1-.31.47-.31 1.099-.31 1.884 0 1.1.31 1.57.778 1.727.468 0 1.246-.314 2.337-.942v-5.025z" fill="#FFA800"/><path d="M6.214 29.837l-.156.314-.312.471-.311.471-.156.628-.312.472-.155.47-.156.472v.628l-.156.471v26.384l.156.942.156.785.467.628.467.471 7.478 4.24-.623-.314-.312-.628-.312-.785V38.003l.156-.47.156-.472.156-.628.155-.471.312-.472.312-.47.311-.472.156-.314-7.477-4.397z" fill="#9C5500"/></g><defs><clipPath id="gclip0"><path fill="#fff" transform="translate(4.5)" d="M0 0h62v68H0z"/></clipPath></defs></symbol><symbol fill="none" viewBox="0 0 178 351" id="icon-leaf-left" xmlns="http://www.w3.org/2000/svg"><path fill-rule="evenodd" clip-rule="evenodd" d="M87.101 2.642c.086.367 2.092 9.245-5.124 20.301-2.263 3.474-5.234 6.813-8.818 9.931l-2.042 1.786-.868-2.569c-.135-.379-3.12-9.539 3.779-20.106C76.486 8.22 79.935 4.721 84.264 1.59L86.478 0l.623 2.642zm-25.12 15.275c.22.391 5.186 9.784.44 24.435-1.492 4.61-3.803 9.283-6.885 13.893l-1.761 2.63-1.761-2.63c-.27-.39-6.433-9.796-1.896-23.8 1.614-4.989 4.427-9.99 8.353-14.834l2.006-2.47 1.504 2.776zM39.637 44.052c.306.404 7.497 10.041 4.733 27.249-.868 5.405-2.654 11.043-5.308 16.73l-1.504 3.253-2.434-2.63c-.367-.39-8.891-9.832-6.25-26.293.942-5.859 3.217-11.937 6.764-18.04l1.81-3.106 2.189 2.837zM18.259 76.23c.452.355 11.031 8.977 12.731 28.68.538 6.188.135 12.878-1.21 19.861l-.759 3.987-3.412-2.226c-.514-.33-12.499-8.365-14.126-27.2-.587-6.713.245-14.015 2.459-21.72l1.137-3.925 3.18 2.543zM9.44 116.32c.49.306 11.973 7.68 15.875 27.065 1.235 6.09 1.578 12.78 1.027 19.874l-.306 4.048-3.632-1.835c-.538-.269-13.355-6.91-17.097-25.438-1.333-6.604-1.333-13.955 0-21.855l.685-4.024 3.448 2.165zm-3.827 43.55c.55.233 13.673 5.797 21.121 25.072 2.348 6.053 3.877 12.878 4.562 20.277l.391 4.231-4.072-1.247c-.612-.183-14.97-4.757-22.088-23.188-2.531-6.567-3.84-14.138-3.852-22.503l-.012-4.268 3.95 1.626zm-.856 39.882c.673.086 16.56 2.556 30.037 21.574 4.231 5.98 7.802 13.012 10.603 20.925L47 246.776l-4.794-.244c-.71-.037-17.697-1.064-30.575-19.238v-.012c-4.586-6.47-8.108-14.395-10.444-23.543L0 199.079l4.758.673zm61.64 34.403c-4.135 8.977-5.627 16.743-5.627 23.273 6.213 4.795 12.12 10.677 17.611 17.563l.025.036c7.203-27.138-5.418-41.202-6.005-41.826l-3.718-4.012-2.287 4.966zm-50.89 12.988c.758-.147 18.749-3.4 40.286 12.034 6.775 4.856 13.22 11.093 19.164 18.541l3.4 4.268-5.234 1.529c-.783.232-19.41 5.418-40.005-9.332-7.338-5.258-14.052-12.462-19.959-21.439l-3.009-4.561 5.357-1.04zm81.905 14.37c-1.774 11.191-1.003 20.204 1.015 27.408 8.341 3.363 16.694 8.023 24.875 13.905l.037.025c-.489-32.153-18.773-43.735-19.604-44.248l-5.345-3.266-.978 6.176zm31.638 22.161c2.421 12.597 6.714 21.904 11.643 28.789 10.163.355 20.852 2.104 31.834 5.21l.062.013c-12.927-34.036-36.849-39.332-37.938-39.552l-6.934-1.419 1.333 6.959zm7.73 34.403c-34.367 0-50.877 17.012-51.562 17.733l-4.868 5.125 6.617 2.544c12.988 4.989 25.512 7.521 37.228 7.521 32.85 0 48.565-19.543 49.213-20.375l4.366-5.553-6.799-1.92c-11.888-3.363-23.396-5.075-34.195-5.075zm-91.444-26.442c.795-.391 19.617-9.563 48.15.771 8.976 3.253 18.014 8.133 26.881 14.505l5.075 3.644-5.295 3.302c-.795.502-19.727 12.01-47.012 2.128-9.723-3.522-19.372-9.392-28.655-17.44l-4.733-4.097 5.59-2.813zm5.467-88.079c-6.017 6.274-9.49 12.303-11.362 17.733 3.791 5.773 7.008 12.377 9.588 19.654l.013.036c13.783-20.509 7.325-35.809 7.02-36.506l-1.933-4.391-3.326 3.474zm-6.445-30.404c-6.543 4.097-10.836 8.512-13.637 12.768 2.006 5.785 3.351 12.156 3.975 18.969v.036c16.303-14.627 14.089-29.18 13.979-29.841l-.71-4.195-3.607 2.263zm-.502-38.048c-6.836 2.801-11.594 6.287-14.92 9.845.966 5.773 1.198 11.998.672 18.553v.037c17.746-11.166 18.003-25.267 18.003-25.903l.012-4.073-3.767 1.541zm6.494-36.323c-7.105 2.006-12.23 4.929-15.936 8.096.294 5.846-.17 12.059-1.406 18.517l-.012.036c18.883-9.099 20.73-23.078 20.803-23.714l.465-4.048-3.914 1.113zm11.888-28.569c-6.507.196-11.521 1.602-15.361 3.51-1.003 5.064-2.74 10.286-5.174 15.532l-.012.025c18.088-3.73 22.675-15.288 22.87-15.813l1.272-3.364-3.595.11zm15.936-26.404c-5.7-.71-10.261-.16-13.881.99-1.566 4.293-3.78 8.61-6.617 12.854l-.024.025c16.302-.808 21.867-10.286 22.112-10.714l1.565-2.764-3.155-.391zm16.498-16.12c-4.562-1.87-8.463-2.433-11.704-2.298-2.263 3.192-5.064 6.261-8.353 9.123l-.025.025c13.66 2.996 20.387-3.584 20.693-3.89l1.908-1.932-2.52-1.027z" fill="#fff"/></symbol><symbol fill="none" viewBox="0 0 178 351" id="icon-leaf-right" xmlns="http://www.w3.org/2000/svg"><path fill-rule="evenodd" clip-rule="evenodd" d="M90.673 2.642c-.086.367-2.091 9.245 5.124 20.301 2.263 3.474 5.235 6.813 8.818 9.931l2.043 1.786.868-2.569c.134-.379 3.119-9.539-3.779-20.106C101.289 8.22 97.84 4.721 93.51 1.59L91.297 0l-.624 2.642zm25.12 15.275c-.22.391-5.185 9.784-.44 24.435 1.492 4.61 3.803 9.283 6.885 13.893l1.762 2.63 1.761-2.63c.269-.39 6.433-9.796 1.895-23.8-1.614-4.989-4.427-9.99-8.353-14.834l-2.006-2.47-1.504 2.776zm22.344 26.135c-.305.404-7.497 10.041-4.733 27.249.869 5.405 2.654 11.043 5.308 16.73l1.505 3.253 2.433-2.63c.367-.39 8.891-9.832 6.25-26.293-.942-5.859-3.217-11.937-6.763-18.04l-1.81-3.106-2.19 2.837zm21.379 32.177c-.453.355-11.032 8.977-12.732 28.68-.538 6.188-.134 12.878 1.211 19.861l.758 3.987 3.412-2.226c.514-.33 12.499-8.365 14.126-27.2.587-6.713-.245-14.015-2.458-21.72l-1.138-3.925-3.179 2.543zm8.817 40.09c-.489.306-11.973 7.68-15.874 27.065-1.236 6.09-1.578 12.78-1.028 19.874l.306 4.048 3.632-1.835c.538-.269 13.355-6.91 17.098-25.438 1.333-6.604 1.333-13.955 0-21.855l-.685-4.024-3.449 2.165zm3.828 43.551c-.55.233-13.673 5.797-21.121 25.072-2.348 6.053-3.877 12.878-4.562 20.277l-.391 4.231 4.073-1.247c.611-.183 14.969-4.757 22.087-23.188 2.532-6.567 3.84-14.138 3.852-22.503l.013-4.268-3.951 1.626zm.856 39.882c-.672.086-16.559 2.556-30.036 21.574-4.232 5.98-7.803 13.012-10.604 20.925l-1.602 4.525 4.794-.244c.71-.037 17.697-1.064 30.575-19.238v-.012c4.586-6.47 8.109-14.395 10.445-23.543l1.186-4.66-4.758.673zm-61.639 34.403c4.134 8.977 5.626 16.743 5.626 23.273-6.213 4.795-12.12 10.677-17.611 17.563l-.025.036c-7.203-27.138 5.418-41.202 6.005-41.826l3.718-4.012 2.287 4.966zm50.889 12.988c-.758-.147-18.748-3.4-40.285 12.034-6.776 4.856-13.221 11.093-19.165 18.541l-3.4 4.268 5.235 1.529c.783.232 19.409 5.418 40.004-9.332 7.338-5.258 14.052-12.462 19.959-21.439l3.009-4.561-5.357-1.04zm-81.904 14.37c1.773 11.191 1.003 20.204-1.015 27.408-8.341 3.363-16.694 8.023-24.876 13.905l-.037.025c.49-32.153 18.773-43.735 19.605-44.248l5.344-3.266.979 6.176zm-31.639 22.161c-2.421 12.597-6.714 21.904-11.642 28.789-10.164.355-20.853 2.104-31.835 5.21l-.061.013c12.927-34.036 36.849-39.332 37.937-39.552l6.934-1.419-1.333 6.959zm-7.73 34.403c34.367 0 50.877 17.012 51.562 17.733l4.868 5.125-6.617 2.544C77.82 348.468 65.297 351 53.58 351c-32.85 0-48.566-19.543-49.214-20.375L0 325.072l6.8-1.92c11.887-3.363 23.396-5.075 34.195-5.075zm91.444-26.442c-.795-.391-19.617-9.563-48.15.771-8.976 3.253-18.014 8.133-26.88 14.505l-5.076 3.644 5.296 3.302c.795.502 19.727 12.01 47.012 2.128 9.722-3.522 19.372-9.392 28.654-17.44l4.733-4.097-5.589-2.813zm-5.466-88.079c6.017 6.274 9.49 12.303 11.361 17.733-3.791 5.773-7.008 12.377-9.588 19.654l-.012.036c-13.783-20.509-7.326-35.809-7.02-36.506l1.932-4.391 3.327 3.474zm6.445-30.404c6.543 4.097 10.836 8.512 13.636 12.768-2.005 5.785-3.351 12.156-3.975 18.969v.036c-16.302-14.627-14.088-29.18-13.978-29.841l.709-4.195 3.608 2.263zm.501-38.048c6.837 2.801 11.594 6.287 14.921 9.845-.967 5.773-1.199 11.998-.673 18.553v.037c-17.746-11.166-18.003-25.267-18.003-25.903l-.012-4.073 3.767 1.541zm-6.494-36.323c7.106 2.006 12.23 4.929 15.936 8.096-.294 5.846.171 12.059 1.406 18.517l.013.036c-18.883-9.099-20.73-23.078-20.804-23.714l-.464-4.048 3.913 1.113zm-11.887-28.569c6.506.196 11.52 1.602 15.361 3.51 1.002 5.064 2.739 10.286 5.173 15.532l.012.025c-18.088-3.73-22.674-15.288-22.87-15.813l-1.272-3.364 3.596.11zM99.601 43.808c5.699-.71 10.261-.16 13.881.99 1.565 4.293 3.779 8.61 6.616 12.854l.025.025c-16.303-.808-21.868-10.286-22.112-10.714L96.445 44.2l3.156-.391zm-16.498-16.12c4.562-1.87 8.463-2.433 11.704-2.298 2.262 3.192 5.063 6.261 8.353 9.123l.024.025c-13.66 2.996-20.387-3.584-20.693-3.89l-1.908-1.932 2.52-1.027z" fill="#fff"/></symbol><symbol fill="none" viewBox="0 0 203 29" id="icon-logo" xmlns="http://www.w3.org/2000/svg"><g clip-path="url(#jclip0)"><path fill-rule="evenodd" clip-rule="evenodd" d="M7.555 0h3.998v4.013H7.555V0zm6.896 4.014h.033c5.792 0 10.487 4.713 10.487 10.527 0 5.814-4.695 10.528-10.487 10.528h-.065v-1.956h.066c4.684 0 8.481-3.838 8.481-8.572 0-4.734-3.797-8.572-8.482-8.572a3.96 3.96 0 00-.065 0V4.015h.032z" fill="#FFA800"/><path fill-rule="evenodd" clip-rule="evenodd" d="M14.416 0v2.007c6.872 0 12.443 5.592 12.443 12.49 0 6.9-5.571 12.492-12.443 12.492v2.007c7.976 0 14.442-6.491 14.442-14.498S22.392 0 14.416 0zM5.473 22.871c-2.103-1.894-3.468-4.948-3.468-8.394 0-2.998 1.034-5.7 2.688-7.599V3.824C1.865 6.113 0 10.03 0 14.477c0 4.845 2.213 9.06 5.473 11.227v-2.833zm6.278-14.89v6.42l1.62-3.34-1.458-3.08h-.162zm-.364 18.347v-9.72l-1.617 4.86 1.617 4.86zm-3.617-9.72v9.72l1.617-4.86-1.617-4.86zM7.406 7.98h-.162l-1.459 3.08 1.621 3.34V7.98zm3.16 0v-.823H8.59v.823h-.286l1.274 2.679 1.275-2.679h-.286zm-.786 3.102l1.574 3.318h.033V7.98h-.131L9.78 11.083zM8.59 15.58v.824h-.505l1.493 4.488 1.494-4.488h-.505v-.824H8.59zm1.977-.365v-.814h.385l-1.374-2.895-1.373 2.895h.385v.814h1.977zm-1.19-4.132L7.901 7.981H7.77v6.42h.032l1.575-3.318zm2.938-3.102l1.423 3.002-.002.16-1.603 3.258h.438v2.003h-.82v10.584h.82V29h-2.004v-2.012h.657l-1.646-4.944-1.645 4.944h.657V29H6.586v-2.012h.82V16.404h-.82V14.4h.438L5.42 11.143v-.16l1.422-3.002h-.256V5.97H8.59v.823h1.977V5.97h2.004v2.01h-.256z" fill="#7048B8"/><path fill-rule="evenodd" clip-rule="evenodd" d="M39.858 3.686v2.03h1.99v-2.03h-1.99zm0 3.375v14.093h1.99V7.061h-1.99zm7.534 3.198c.77-.567 1.685-1.152 2.666-1.152h1.166c2.198 0 3.98 1.791 3.98 4v7.985h-1.99v-7.985c0-1.104-.891-2-1.99-2h-1.166a2.993 2.993 0 00-2.986 3v7.047h-1.99V9.123h1.99v.975a.2.2 0 00.32.161zm11.497-1.167V6.107h1.99v2.985h2.83v2h-2.83v7.034a.995.995 0 001.44.895l1.88-.943v2.235l-.993.498c-1.985.994-4.317-.457-4.317-2.685v-7.034h-1.71v-2h1.71zM109.95 6.1v2.984h-1.71v2h1.71v7.034c0 2.229 2.332 3.68 4.317 2.685l.993-.498v-2.234l-1.88.942a.996.996 0 01-1.44-.895v-7.034h2.83v-2h-2.83V6.101h-1.99zM70.924 9.154c-2.954 0-5.349 2.473-5.349 5.522v.931c0 3.05 2.395 5.522 5.349 5.522 1.06 0 2.681-.249 4.353-.987v-2.279c-1.666.927-3.385 1.212-4.353 1.212-1.761 0-3.205-1.399-3.347-3.179h8.695v-1.22c0-3.05-2.394-5.522-5.348-5.522zm0 2.055c1.576 0 2.898 1.12 3.26 2.633h-6.52c.361-1.512 1.683-2.633 3.26-2.633zm21.58-1.002c0 .173.207.267.343.162a5.926 5.926 0 013.638-1.242h.467v2h-.467c-2.198 0-3.98 1.79-3.98 4v6.003h-1.99V9.123h1.99v1.084zm40.209.146c-.136.106-.342.011-.342-.161V9.107h-1.99v12.008h1.99v-6.004c0-2.209 1.782-4 3.981-4h.465v-2h-.465c-1.37 0-2.632.463-3.639 1.242zm-10.348-1.246c-3.086 0-5.589 2.515-5.589 5.618v.78c0 3.103 2.503 5.618 5.589 5.618 3.087 0 5.59-2.515 5.59-5.617v-.781c0-3.103-2.503-5.618-5.59-5.618zm-3.599 5.618a3.608 3.608 0 013.599-3.618c1.989 0 3.6 1.62 3.6 3.618v.78a3.608 3.608 0 01-3.6 3.618 3.608 3.608 0 01-3.599-3.617v-.781zm-20.82-2.405l.12-.06a11.796 11.796 0 013.524-1.111 2.36 2.36 0 01.349-.026h.603c1.043 0 1.889.85 1.889 1.898v.32h-3.499c-2.362 0-4.276 1.925-4.276 4.298a3.464 3.464 0 003.456 3.472h.814c.097 0 .232.001.363-.006a6.272 6.272 0 003.142-1.112v1.13h1.99v-8.102c0-2.153-1.736-3.898-3.879-3.898h-.603a4.35 4.35 0 00-.642.048c-1.153.172-2.279.49-3.35.945v2.204zm6.485 3.022v1.833a4.278 4.278 0 01-3.257 1.933 3.55 3.55 0 01-.218.003h-.844a1.47 1.47 0 01-1.466-1.472 2.291 2.291 0 012.286-2.297h3.499zm-21.395.054c1.465 0 2.41-1.08 2.41-2.12 0-1.042-.945-2.122-2.41-2.122-1.466 0-2.41 1.08-2.41 2.121s.944 2.121 2.41 2.121zm0 2c2.43 0 4.4-1.845 4.4-4.12a3.89 3.89 0 00-.414-1.747h1.238v-2h-3.388a4.635 4.635 0 00-1.836-.375c-2.43 0-4.4 1.845-4.4 4.121 0 1.034.406 1.978 1.077 2.702l-2.161 2.256c-.579.603-.153 1.609.68 1.609h.42c-.694.63-1.105 1.415-1.105 2.265 0 2.08 2.457 3.766 5.489 3.766 3.03 0 5.488-1.686 5.488-3.766s-2.457-3.765-5.488-3.765a8.016 8.016 0 00-.114 0h-2.935a.2.2 0 01-.143-.339l1.07-1.117c.629.325 1.352.51 2.122.51zm2.758 5.722c.632-.433.74-.825.74-1.01 0-.186-.108-.578-.74-1.012-.621-.426-1.59-.754-2.758-.754s-2.138.328-2.76.754c-.63.434-.739.826-.739 1.011 0 .186.108.578.74 1.011.621.427 1.59.755 2.759.755 1.168 0 2.137-.328 2.758-.755zM202.587 3.127v18.012h-.995V3.127h.995zm-55.445 18.027V4.123h-.995v17.031h.995zm3.265-17.031h-.87v1h.87c3.573 0 6.468 2.91 6.468 6.5v1.125c0 4.073-3.285 7.375-7.338 7.375v1c4.602 0 8.334-3.75 8.334-8.375v-1.125c0-4.142-3.342-7.5-7.464-7.5zm11.32 3.453v.953h-.996v-.953h.996zm0 1.938v11.609h-.996V9.513h.996zm16.356-.985v-.953h-.995v.953h.995zm0 12.594V9.513h-.995v11.61h.995zm4.309-10.594l.011 8.003A2.604 2.604 0 00185 21.139c.319 0 .637-.06.934-.175l2.007-.777v-.932l-.047-.122-2.317.898a1.6 1.6 0 01-2.179-1.5l-.011-8.002h4.134v-1h-4.135l-.005-3.407-.995.002.005 3.405h-1.882v1h1.883zm11.372-1.325a4.41 4.41 0 01.759-.065c2.127 0 3.851 1.732 3.851 3.87v8.114h-.995v-2.401c-.725.926-1.489 1.503-2.126 1.857-.908.505-1.945.544-2.841.544h-.104a3.295 3.295 0 01-3.287-3.302c0-2.21 1.783-4.003 3.983-4.003h4.375v-.81a2.863 2.863 0 00-2.856-2.87 3.43 3.43 0 00-.589.052l-.659.115a8.247 8.247 0 00-1.939.591l-.783.349V10.15l.379-.169a9.237 9.237 0 012.173-.663l.659-.115zm3.615 5.614v2.073c-.843 1.583-1.86 2.398-2.607 2.813-.661.368-1.46.419-2.36.419h-.104a2.297 2.297 0 01-2.292-2.302 2.996 2.996 0 012.988-3.003h4.375zm-27.91 1.649c1.881 0 3.297-1.423 3.297-3.047s-1.416-3.047-3.297-3.047c-1.88 0-3.296 1.423-3.296 3.047s1.416 3.047 3.296 3.047zm0 1c2.371 0 4.292-1.812 4.292-4.047 0-1.133-.493-2.156-1.288-2.89h1.801v-1h-3.619a4.549 4.549 0 00-1.186-.157c-2.37 0-4.291 1.812-4.291 4.047 0 1.149.508 2.186 1.323 2.923l-1.284 1.698c-.483.64-.055 1.553.725 1.603-.905.622-1.464 1.482-1.464 2.432 0 1.899 2.235 3.438 4.991 3.438 2.757 0 4.992-1.54 4.992-3.438 0-1.898-2.235-3.437-4.992-3.437-.114 0-.226.002-.339.007h-2.92a.1.1 0 01-.079-.16l1.184-1.566a4.468 4.468 0 002.154.547zm-2.966 3.003c.654-.45 1.58-.77 2.651-.824h.008c.101-.005.204-.007.307-.007 1.203 0 2.249.337 2.967.831.722.498 1.03 1.082 1.03 1.606s-.308 1.109-1.03 1.606c-.718.494-1.764.832-2.967.832s-2.249-.338-2.966-.832c-.722-.497-1.03-1.082-1.03-1.606s.308-1.108 1.03-1.606z" fill="#000"/><path d="M140.17 18.888h1.407v1.415h-1.407v-1.415z" fill="#FFA800"/></g><defs><clipPath id="jclip0"><path fill="#fff" d="M0 0h202.587v29H0z"/></clipPath></defs></symbol><symbol fill="none" viewBox="0 0 280 40" id="icon-logo--white" xmlns="http://www.w3.org/2000/svg"><g clip-path="url(#kclip0)"><path d="M15.935 0H10.42v5.536h5.515V0z" fill="#fff"/><path fill-rule="evenodd" clip-rule="evenodd" d="M19.884 2.768V0c11.002 0 19.92 8.953 19.92 19.997s-8.919 19.997-19.92 19.997v-2.767c9.479 0 17.163-7.714 17.163-17.23s-7.684-17.23-17.163-17.23zm-3.677 8.24v8.855l2.237-4.608-2.012-4.246h-.224zm-.5 25.307V22.907l-2.231 6.704 2.23 6.704zm-4.99-13.408v13.408l2.23-6.704-2.23-6.704zm-.502-11.898h-.224L7.98 15.255l2.236 4.608v-8.854zm4.36 0V9.873h-2.727v1.136h-.395l1.758 3.694 1.759-3.694h-.395zm-1.086 4.278l2.172 4.576h.045v-8.854h-.181l-2.036 4.278zm-1.641 6.203v1.136h-.697l2.06 6.19 2.06-6.19h-.696V21.49h-2.727zm2.727-.503v-1.124h.53l-1.894-3.992-1.894 3.992h.531v1.124h2.727zm-1.641-5.7l-2.036-4.278h-.181v8.854h.045l2.172-4.576zm4.052-4.278l1.962 4.14-.001.22-2.212 4.494h.604v2.763h-1.131v14.6h1.131V40h-2.764v-2.775h.906l-2.27-6.82-2.27 6.82h.907V40H9.084v-2.775h1.131v-14.6H9.084v-2.762h.604l-2.212-4.494-.002-.22 1.962-4.14h-.352V8.234h2.764V9.37h2.727V8.234h2.764v2.775h-.353z" fill="#7048B8"/><path fill-rule="evenodd" clip-rule="evenodd" d="M54.976 5.083v2.802h2.745V5.084h-2.745zm0 4.656v19.44h2.745V9.738h-2.745zm10.392 4.411c1.063-.781 2.324-1.588 3.677-1.588h1.608c3.032 0 5.49 2.47 5.49 5.517v11.013h-2.745V18.08a2.752 2.752 0 00-2.745-2.758h-1.608c-2.274 0-4.118 1.852-4.118 4.138v9.719h-2.745V12.584h2.745v1.344c0 .227.259.357.441.222zm15.858-1.61V8.424h2.745v4.116h3.904v2.76H83.97V25c0 1.025 1.073 1.692 1.985 1.235l2.595-1.3v3.083l-1.37.686c-2.737 1.372-5.955-.63-5.955-3.703v-9.702h-2.359V12.54h2.36zm70.429-4.125v4.117h-2.358v2.758h2.358v9.702c0 3.074 3.217 5.075 5.955 3.703l1.37-.686v-3.082l-2.594 1.3a1.374 1.374 0 01-1.986-1.235V15.29h3.903v-2.758H154.4V8.415h-2.745zm-53.83 4.212c-4.074 0-7.377 3.41-7.377 7.616v1.285c0 4.206 3.303 7.616 7.378 7.616 1.464 0 3.699-.344 6.005-1.362v-3.143c-2.299 1.279-4.67 1.671-6.005 1.671-2.429 0-4.42-1.93-4.617-4.384h11.994v-1.683c0-4.206-3.303-7.616-7.377-7.616zm0 2.834c2.175 0 3.999 1.546 4.498 3.63h-8.994c.499-2.084 2.323-3.63 4.497-3.63zm29.768-1.382c0 .239.284.368.472.223a8.177 8.177 0 015.018-1.713h.643v2.758h-.643c-3.032 0-5.49 2.47-5.49 5.518v8.281h-2.745V12.584h2.745v1.495zm55.46.201c-.188.146-.472.016-.472-.223v-1.495h-2.745v16.562h2.745v-8.28c0-3.048 2.458-5.518 5.49-5.518h.642v-2.759h-.642a8.173 8.173 0 00-5.018 1.713zm-14.273-1.718c-4.258 0-7.71 3.469-7.71 7.748v1.077c0 4.28 3.452 7.748 7.71 7.748s7.709-3.469 7.709-7.748V20.31c0-4.28-3.451-7.748-7.709-7.748zm-4.965 7.748c0-2.756 2.223-4.99 4.965-4.99s4.964 2.234 4.964 4.99v1.077c0 2.756-2.222 4.99-4.964 4.99-2.742 0-4.965-2.234-4.965-4.99V20.31zm-28.716-3.317l.166-.083a16.265 16.265 0 014.859-1.532c.159-.024.321-.036.482-.036h.831a2.611 2.611 0 012.605 2.618v.442h-4.825c-3.258 0-5.898 2.654-5.898 5.927 0 2.645 2.134 4.79 4.767 4.79h1.122c.133 0 .32.002.501-.009a8.647 8.647 0 004.333-1.534v1.56h2.746V17.96c0-2.97-2.396-5.377-5.351-5.377h-.831c-.297 0-.592.022-.886.066-1.59.238-3.143.676-4.621 1.304v3.04zm8.943 4.168v2.528c-1.556 2.325-3.834 2.629-4.492 2.667a4.783 4.783 0 01-.3.005h-1.164a2.026 2.026 0 01-2.022-2.032 3.16 3.16 0 013.153-3.168h4.825zm-29.51.075c2.021 0 3.324-1.49 3.324-2.925 0-1.436-1.303-2.926-3.324-2.926s-3.324 1.49-3.324 2.926c0 1.436 1.303 2.925 3.324 2.925zm0 2.76c3.352 0 6.069-2.546 6.069-5.685 0-.861-.204-1.677-.57-2.409h1.707v-2.758h-4.673a6.395 6.395 0 00-2.533-.517c-3.352 0-6.069 2.544-6.069 5.684 0 1.425.56 2.728 1.485 3.726l-2.981 3.112c-.797.832-.21 2.219.94 2.219h.577c-.956.87-1.523 1.952-1.523 3.125 0 2.869 3.39 5.194 7.571 5.194 4.181 0 7.57-2.325 7.57-5.194 0-2.869-3.389-5.194-7.57-5.194a12.331 12.331 0 00-.157 0h-4.048a.276.276 0 01-.198-.467l1.475-1.54a6.368 6.368 0 002.928.703zm3.805 7.891c.871-.597 1.02-1.139 1.02-1.394 0-.255-.149-.797-1.02-1.394-.857-.589-2.194-1.041-3.805-1.041-1.611 0-2.948.452-3.806 1.04-.871.598-1.02 1.14-1.02 1.395 0 .255.149.797 1.02 1.394.858.589 2.195 1.041 3.806 1.041 1.611 0 2.948-.452 3.805-1.04zM279.431 4.313v24.844h-1.373V4.313h1.373zm-76.476 24.865V5.687h-1.372v23.491h1.372zm4.503-23.491h-1.201v1.38h1.201c4.928 0 8.922 4.013 8.922 8.965v1.551c0 5.619-4.532 10.173-10.123 10.173v1.38c6.348 0 11.496-5.173 11.496-11.553v-1.551c0-5.714-4.609-10.345-10.295-10.345zm15.613 4.763v1.315h-1.372V10.45h1.372zm0 2.672v16.013h-1.372V13.122h1.372zm22.561-1.357V10.45h-1.373v1.315h1.373zm0 17.37V13.122h-1.373v16.013h1.373zm5.943-14.612l.015 11.038a3.592 3.592 0 003.582 3.596c.441 0 .879-.082 1.289-.241l2.769-1.072v-1.285l-.066-.169-3.196 1.239a2.204 2.204 0 01-.796.148 2.215 2.215 0 01-2.209-2.218l-.016-11.036h5.703v-1.38h-5.704l-.007-4.698-1.372.001.007 4.698h-2.596v1.38h2.597zm15.686-1.827c.345-.06.697-.091 1.047-.091 2.933 0 5.312 2.39 5.312 5.337v11.193h-1.373v-3.312c-.999 1.278-2.053 2.073-2.932 2.562-1.253.697-2.683.75-3.918.75h-.144c-2.504 0-4.534-2.039-4.534-4.554 0-3.05 2.46-5.521 5.494-5.521h6.034v-1.118c0-2.186-1.764-3.958-3.939-3.958-.272 0-.544.024-.813.07l-.908.16c-.921.16-1.82.434-2.675.815l-1.081.481v-1.509l.523-.232a12.748 12.748 0 012.998-.915l.909-.158zm4.986 7.743v2.858c-1.162 2.184-2.565 3.308-3.596 3.881-.911.507-2.014.578-3.254.578h-.144a3.168 3.168 0 01-3.161-3.175c0-2.288 1.846-4.142 4.121-4.142h6.034zm-38.496 2.274c2.594 0 4.547-1.963 4.547-4.203s-1.953-4.202-4.547-4.202c-2.594 0-4.547 1.962-4.547 4.202s1.953 4.203 4.547 4.203zm0 1.38c3.269 0 5.92-2.5 5.92-5.583 0-1.562-.681-2.974-1.778-3.987h2.485v-1.38h-4.992a6.262 6.262 0 00-1.635-.215c-3.269 0-5.92 2.5-5.92 5.582 0 1.585.701 3.016 1.826 4.032l-1.771 2.343c-.667.883-.077 2.141.999 2.21-1.247.859-2.019 2.045-2.019 3.355 0 2.619 3.083 4.741 6.885 4.741 3.802 0 6.885-2.123 6.885-4.741 0-2.619-3.083-4.741-6.885-4.741-.158 0-.313.003-.468.01h-4.027a.138.138 0 01-.11-.221l1.633-2.16c.873.48 1.889.754 2.972.754zm-4.092 4.142c.902-.621 2.18-1.063 3.657-1.136l.011-.001c.14-.007.281-.01.424-.01 1.659 0 3.102.466 4.091 1.147.997.686 1.421 1.492 1.421 2.215 0 .722-.424 1.529-1.421 2.215-.989.681-2.432 1.147-4.091 1.147-1.659 0-3.102-.466-4.092-1.147-.996-.686-1.42-1.493-1.42-2.215 0-.723.424-1.53 1.42-2.215z" fill="#fff"/><path d="M193.338 26.052h1.94v1.951h-1.94v-1.951z" fill="#7048B8"/></g><defs><clipPath id="kclip0"><path fill="#fff" d="M0 0h279.431v40H0z"/></clipPath></defs></symbol><symbol fill="none" viewBox="0 0 25 16" id="icon-mail" xmlns="http://www.w3.org/2000/svg"><path fill-rule="evenodd" clip-rule="evenodd" d="M12.5 12.29L.71.5h23.58L12.5 12.29zM25 1.21v13.58l-6.65-6.64-.7.7 6.64 6.65H.71l6.64-6.65-.7-.7L0 14.79V1.21L11.79 13l-.14.15.7.7.15-.14.15.14.7-.7-.14-.15L25 1.21z" fill="#7048B8"/></symbol><symbol fill="none" viewBox="0 0 15 20" id="icon-mappin" xmlns="http://www.w3.org/2000/svg"><path fill-rule="evenodd" clip-rule="evenodd" d="M15 7.5C15 3.36 11.64 0 7.5 0 3.36 0 0 3.36 0 7.5 0 11.64 7.5 20 7.5 20S15 11.64 15 7.5zm-2 0C13 4.46 10.54 2 7.5 2S2 4.46 2 7.5 4.46 13 7.5 13 13 10.54 13 7.5z" fill="#fff"/></symbol><symbol fill="none" viewBox="0 0 115 16" id="icon-megagroup" xmlns="http://www.w3.org/2000/svg"><path fill-rule="evenodd" clip-rule="evenodd" d="M18.66 1.43v-.04c0-.25-.08-.47-.22-.68-.15-.22-.4-.39-.74-.52-.35-.12-.8-.19-1.36-.19-.41 0-.8.05-1.18.16-.38.11-.73.3-1.06.56-.33.26-.63.63-.89 1.09L9.14 8.92c-.04.08-.08.15-.13.23-.05.08-.1.14-.15.19-.05.06-.1.09-.14.09-.05 0-.09-.03-.12-.08-.03-.06-.06-.12-.08-.2l-.01-.04c-.016-.064-.032-.124-.04-.19L7.41 1.81c-.07-.47-.22-.83-.43-1.1a1.73 1.73 0 00-.81-.55C5.84.05 5.47 0 5.05 0c-.24 0-.5.02-.78.07-.28.04-.56.13-.83.26-.27.13-.51.32-.72.58-.21.25-.36.58-.45.99L0 12.45h3.19l1.74-8.53.013-.047c.007-.026.015-.058.027-.093a.847.847 0 01.057-.126l.023-.044c.04-.05.09-.08.14-.08.05 0 .09.05.12.13s.05.18.06.29l1.03 7.07c.03.24.08.45.14.64.06.19.14.36.26.49.12.14.29.24.5.32.22.07.5.11.85.11s.64-.04.89-.11.46-.18.63-.32c.18-.14.33-.3.48-.49.123-.167.238-.357.359-.556l.051-.084 4.06-7.07c.07-.13.14-.23.2-.31.06-.08.11-.11.16-.12.04 0 .07.02.09.05.02.03.04.09.04.16v.08a.23.23 0 01-.005.045.275.275 0 00-.005.045l-1.93 8.53h3.19L18.6 1.9c.03-.15.05-.3.05-.45l.01-.02zm10.098 5.606l-.018.084c-.003.025-.008.048-.013.071a.616.616 0 00-.017.129c-.07.27-.17.5-.29.69-.15.24-.35.41-.6.53-.25.12-.57.18-.95.18h-5.29c-.03.12-.05.24-.06.35 0 .056-.003.11-.005.162-.003.05-.005.1-.005.148-.01.24.04.45.14.61.1.16.27.29.5.37.23.09.55.13.94.13h4.57l-.43 1.97h-5.32c-.75 0-1.37-.11-1.85-.31s-.83-.52-1.06-.94c-.22-.41-.33-.92-.34-1.53v-.11c0-.19.018-.41.037-.637L18.7 8.9c.02-.26.06-.54.11-.82l.011-.064c.047-.26.094-.527.159-.786.17-.74.35-1.36.56-1.86.2-.5.45-.91.73-1.22.29-.31.62-.55 1.02-.71.39-.16.86-.27 1.4-.33.4-.05.85-.07 1.34-.08h.57c.66 0 1.26.04 1.79.13s.98.24 1.36.45c.38.21.67.49.87.86l.04.085.04.085c.14.33.22.73.22 1.2 0 .18-.02.39-.05.6a9.733 9.733 0 01-.112.596zm-2.698-.85a.502.502 0 01.01-.066c.01-.05.01-.09.01-.11a.77.77 0 00-.16-.48c-.1-.13-.24-.23-.41-.31-.17-.08-.36-.14-.56-.17-.21-.04-.41-.05-.61-.05h-.31c-.34.02-.63.07-.87.15-.32.12-.57.3-.76.57-.19.26-.33.63-.43 1.08h3.44c.17 0 .29-.03.38-.09.08-.06.14-.13.18-.22.03-.08.06-.17.08-.24.005-.023.007-.045.01-.065zM38.15 3.13c.33 0 .59.06.81.17.21.12.37.27.47.46.11.2.16.42.16.68 0 .07 0 .14-.01.21l-.004.026a1.96 1.96 0 01-.036.204l-1.45 6.77c-.16.71-.36 1.32-.61 1.82s-.57.9-.95 1.21c-.38.31-.85.53-1.4.67-.23.06-.47.11-.74.14-.36.05-.76.07-1.2.07h-4.71l.22-1.01.2-.93h4.23c.3.01.59-.03.85-.1.15-.03.28-.09.41-.16.1-.06.2-.12.29-.2.2-.17.36-.41.49-.71h-2.64c-.6 0-1.11-.09-1.52-.25-.41-.17-.74-.4-.99-.7-.25-.3-.43-.65-.54-1.07-.11-.41-.16-.87-.16-1.37 0-.26.01-.52.04-.79s.08-.55.14-.83c.15-.7.33-1.32.56-1.86.23-.54.53-.99.89-1.35.36-.36.82-.64 1.37-.82.56-.19 1.23-.28 2.02-.28h3.81zM36.6 5.785a.54.54 0 01.01-.075.785.785 0 00.01-.07c.003-.022.005-.045.01-.07 0-.15-.05-.27-.14-.33-.1-.06-.25-.09-.46-.09h-1.29c-.12 0-.23.01-.34.02-.27.03-.5.09-.7.19-.28.14-.51.33-.68.57a3.3 3.3 0 00-.42.84c-.11.32-.2.66-.28 1.02-.04.22-.08.44-.11.65-.03.2-.05.41-.05.6 0 .26.04.5.12.71.08.21.23.37.43.49.2.13.49.19.85.19h2.04l.99-4.57.01-.075zm68.98-2.655l-.25 1.2v-.01h-.76c-.54 0-.99.09-1.36.28-.36.19-.66.46-.89.84-.23.38-.41.85-.53 1.42l-1.2 5.59H99.1l1.28-5.96c.16-.77.41-1.4.75-1.9a3.1 3.1 0 011.35-1.1c.56-.24 1.25-.36 2.08-.36h1.02zm7.48 0l-1.61 7.53c-.05.23-.13.39-.25.48-.11.09-.25.13-.43.12h-2.68c-.37 0-.67-.06-.89-.16-.22-.11-.38-.26-.48-.46-.1-.2-.15-.44-.15-.72 0-.102.009-.212.018-.33l.002-.03.015-.09c.015-.098.032-.204.055-.31l1.29-6.03h-1.49l-1.16 5.43-.19.87a5.682 5.682 0 00-.062.358l-.008.052c-.01.13-.02.26-.02.38 0 .44.09.82.27 1.13a.88.88 0 01.03.05l.03.05c.22.33.54.58.95.75.42.17.91.26 1.49.26h3.3c.4 0 .71-.06.95-.18.23-.12.41-.29.54-.52.12-.23.22-.51.29-.84l1.67-7.79h-1.48zM49.92 5.7l-.03.23c-.01.05-.02.1-.01.14l-.97 4.61c-.08.38-.21.7-.38.96s-.4.46-.69.59c-.29.13-.66.2-1.1.2h-4.91c-.46 0-.85-.09-1.17-.28a1.86 1.86 0 01-.73-.79c-.17-.34-.25-.74-.25-1.21 0-.151.009-.31.018-.48l.002-.03c.01-.19.03-.37.06-.55.1-.59.28-1.06.53-1.43.26-.37.59-.63.99-.8.41-.17.89-.25 1.45-.25H47l.09-.4c.005-.029.007-.055.01-.08a.761.761 0 01.01-.08c.01-.05.01-.1.01-.15 0-.26-.09-.46-.26-.6-.17-.13-.42-.2-.74-.2h-4.75l.43-1.97h5.8c.53 0 .96.1 1.31.3.34.19.6.46.77.79.1.19.17.4.21.63.03.16.04.33.04.51 0 .11 0 .23-.01.34zm-3.89 4.71c.11-.09.2-.25.25-.47l.32-1.41h-2.96c-.17 0-.33.02-.46.06a.67.67 0 00-.34.23c-.1.11-.17.27-.23.48-.03.1-.05.21-.07.32l-.003.037a3.008 3.008 0 00-.017.243c0 .21.05.37.16.48.1.11.27.17.49.17h2.35c.22.01.39-.04.51-.14zm40.06-7.28H84.6l-1.61 7.53c-.05.23-.13.39-.25.48-.11.09-.25.13-.43.12h-2.68c-.37 0-.67-.06-.89-.16-.22-.11-.38-.26-.48-.46-.1-.2-.15-.44-.15-.72a4.4 4.4 0 01.018-.33l.002-.03.015-.09c.015-.098.032-.204.055-.31l1.29-6.03H78l-1.35 6.3a5.989 5.989 0 00-.062.358l-.008.052c-.01.13-.02.26-.02.38 0 .49.12.9.34 1.23.22.33.54.58.95.75.42.17.91.26 1.49.26h3.3c.4 0 .71-.06.95-.18.23-.12.41-.29.54-.52.12-.23.22-.51.29-.84l1.23-5.76.44-2.03zm-19.56 0l-.25 1.2v-.01h-.77c-.54 0-.99.09-1.36.28-.36.19-.66.46-.89.84-.23.38-.41.85-.53 1.42l-1.2 5.59h-1.49l1.28-5.96c.16-.77.41-1.4.75-1.9a3.1 3.1 0 011.35-1.1c.56-.24 1.25-.36 2.08-.36h1.03zm7.35.22c-.62-.22-1.39-.33-2.31-.33-.29 0-.57.01-.83.02-.5.03-.96.1-1.36.19-.62.15-1.16.4-1.61.74-.45.35-.82.81-1.12 1.4-.2.39-.37.84-.52 1.35-.08.28-.15.56-.22.86-.07.32-.12.62-.15.9s-.04.55-.04.81c0 .71.14 1.31.41 1.78a.88.88 0 01.03.05l.03.05c.31.48.77.84 1.39 1.06.62.23 1.39.34 2.31.34.3 0 .58-.01.85-.03.49-.03.94-.1 1.35-.2.63-.16 1.16-.41 1.61-.76.45-.35.82-.83 1.13-1.43.3-.6.54-1.33.73-2.21a7.459 7.459 0 00.19-1.69c0-.76-.16-1.38-.47-1.85-.32-.48-.78-.83-1.4-1.05zm.26 3.6c-.03.25-.08.52-.14.81-.14.66-.32 1.22-.53 1.68-.21.46-.48.83-.79 1.12-.32.28-.69.49-1.14.62-.24.07-.51.12-.8.16-.24.03-.49.04-.76.04-.62 0-1.13-.07-1.52-.21-.4-.14-.69-.37-.89-.68-.19-.31-.28-.72-.28-1.22 0-.21.02-.44.05-.69l.019-.12c.034-.216.07-.446.121-.69.13-.67.31-1.23.52-1.68.22-.45.48-.82.8-1.09.32-.27.7-.47 1.14-.6.24-.07.51-.12.79-.15.24-.02.49-.04.76-.04.62 0 1.13.06 1.53.2.4.13.69.35.88.65.19.3.29.7.28 1.19.01.22-.01.45-.04.7zm17.89-3.82c.78.01 1.4.13 1.88.37.47.24.82.58 1.04 1.03.22.45.32.99.32 1.61 0 .54-.07 1.14-.21 1.79-.15.73-.34 1.37-.57 1.93-.23.56-.52 1.03-.89 1.42-.36.38-.82.67-1.37.87-.45.16-.97.26-1.57.29-.14.01-.29.01-.45.01h-2.87l-.64 2.99h-1.47l.43-2.04 1.87-8.81c.08-.35.19-.64.34-.85.15-.21.35-.37.6-.47.25-.09.56-.14.92-.14h2.64zm1.47 4.63c.07-.31.12-.61.16-.89l.034-.34v-.001c.014-.158.028-.308.046-.449 0-.37-.06-.68-.18-.94-.12-.26-.33-.46-.63-.6-.3-.14-.7-.21-1.22-.21h-2.06a.69.69 0 00-.44.11c-.12.08-.2.22-.24.43l-1.36 6.39h2.6c.16 0 .31-.01.45-.02.36-.04.68-.12.95-.24.38-.17.69-.42.93-.73.24-.32.43-.68.58-1.11.15-.42.28-.89.38-1.4zM59.02 3.24c-.31-.08-.68-.11-1.12-.11h-2.18c-.15 0-.29 0-.43.01-.47.02-.9.08-1.27.18-.49.13-.9.31-1.25.55-.35.25-.64.55-.89.91-.24.36-.45.78-.61 1.25-.17.47-.31 1-.43 1.58-.07.34-.13.67-.17.99-.05.32-.07.62-.07.9 0 .62.1 1.15.32 1.59.22.44.57.78 1.06 1.01.48.23 1.12.35 1.92.35h2.87c-.14.43-.35.78-.62 1.05-.25.24-.54.43-.86.55l-.018.006a.324.324 0 00-.082.034c-.37.13-.76.19-1.18.18h-3.92l-.2.98-.04.21h3.91c.58 0 1.09-.04 1.53-.13.15-.03.3-.06.44-.1.54-.16.98-.39 1.34-.71.35-.32.64-.73.86-1.22.22-.49.4-1.08.54-1.76l1.47-6.81c.04-.16.05-.3.05-.42 0-.3-.09-.53-.25-.71-.17-.16-.41-.28-.72-.36zm-.61 1.62c0 .014-.002.03-.004.047a.434.434 0 00-.006.063l-1.35 6.3h-2.78c-.53 0-.95-.07-1.26-.2-.31-.13-.53-.33-.66-.59-.13-.26-.19-.58-.19-.96 0-.24.02-.5.06-.79.04-.29.1-.6.17-.93.11-.55.25-1.04.4-1.47.16-.43.36-.79.61-1.09.25-.3.56-.52.94-.68.27-.11.58-.18.94-.21.15-.01.31-.02.47-.02h2.11c.19 0 .33.03.42.11.09.07.13.18.13.32.01.02.01.06 0 .1zm38.81 7.59h-1.61l.41-1.9h1.61l-.41 1.9z" fill="#fff"/></symbol><symbol fill="none" viewBox="0 0 69 51" id="icon-number-01" xmlns="http://www.w3.org/2000/svg"><path stroke="#FFA800" d="M1 1.5h25"/><path stroke="#CCC" d="M1 25.5h25"/><path stroke="#FFA800" d="M1 49.5h25M1.5 1v25m24-25v25m-24-1v25m24-25v25"/><path stroke="#CCC" d="M1.646 48.646l23-23m-23-1l23-23m0 47.708l-23-23m23-1l-23-23"/><path fill="#FFA800" d="M0 0h3v3H0zm0 24h3v3H0zm0 24h3v3H0zM24 0h3v3h-3zm0 24h3v3h-3zm0 24h3v3h-3z"/><path stroke="#CCC" d="M43 1.5h25m-25 24h25m-1.354 23.854l-22.999-23m22.999-1l-22.999-23M43 49.5h25M43.5 1v25"/><path stroke="#FFA800" d="M67.5 1v25"/><path stroke="#CCC" d="M43.5 25v25"/><path stroke="#FFA800" d="M67.5 25v25"/><path stroke="#CCC" d="M43.646 48.646l23-23"/><path stroke="#FFA800" d="M43.646 24.646l23-23"/><path fill="#CCC" d="M42 0h3v3h-3z"/><path fill="#FFA800" d="M42 24h3v3h-3z"/><path fill="#CCC" d="M42 48h3v3h-3z"/><path fill="#FFA800" d="M66 0h3v3h-3zm0 24h3v3h-3zm0 24h3v3h-3z"/></symbol><symbol fill="none" viewBox="0 0 69 51" id="icon-number-02" xmlns="http://www.w3.org/2000/svg"><path stroke="#FFA800" d="M1 1.5h25"/><path stroke="#CCC" d="M1 25.5h25"/><path stroke="#FFA800" d="M1 49.5h25M1.5 1v25m24-25v25m-24-1v25m24-25v25"/><path stroke="#CCC" d="M1.646 48.646l23-23m-23-1l23-23m0 47.708l-23-23m23-1l-23-23"/><path fill="#FFA800" d="M0 0h3v3H0zm0 24h3v3H0zm0 24h3v3H0zM24 0h3v3h-3zm0 24h3v3h-3zm0 24h3v3h-3z"/><path stroke="#FFA800" d="M43 1.5h25"/><path stroke="#CCC" d="M43 25.5h25m-1.354 23.854l-22.999-23m22.999-1l-22.999-23"/><path stroke="#FFA800" d="M43 49.5h25"/><path stroke="#CCC" d="M43.5 1v25"/><path stroke="#FFA800" d="M67.5 1v25"/><path stroke="#CCC" d="M43.5 25v25m24-25v25"/><path stroke="#FFA800" d="M43.646 48.646l23-23"/><path stroke="#CCC" d="M43.646 24.646l23-23"/><path fill="#FFA800" d="M42 0h3v3h-3z"/><path fill="#CCC" d="M42 24h3v3h-3z"/><path fill="#FFA800" d="M42 48h3v3h-3zM66 0h3v3h-3zm0 24h3v3h-3zm0 24h3v3h-3z"/></symbol><symbol fill="none" viewBox="0 0 69 51" id="icon-number-03" xmlns="http://www.w3.org/2000/svg"><path stroke="#FFA800" d="M1 1.5h25"/><path stroke="#CCC" d="M1 25.5h25"/><path stroke="#FFA800" d="M1 49.5h25M1.5 1v25m24-25v25m-24-1v25m24-25v25"/><path stroke="#CCC" d="M1.646 48.646l23-23m-23-1l23-23m0 47.708l-23-23m23-1l-23-23"/><path fill="#FFA800" d="M0 0h3v3H0zm0 24h3v3H0zm0 24h3v3H0zM24 0h3v3h-3zm0 24h3v3h-3zm0 24h3v3h-3z"/><path stroke="#FFA800" d="M43 1.5h25m-25 24h25"/><path stroke="#CCC" d="M66.646 49.354l-22.999-23m22.999-1l-22.999-23M43 49.5h25M43.5 1v25m24-25v25m-24-1v25m24-25v25"/><path stroke="#FFA800" d="M43.646 48.646l23-23m-23-1l23-23"/><path fill="#FFA800" d="M42 0h3v3h-3zm0 24h3v3h-3zm0 24h3v3h-3zM66 0h3v3h-3zm0 24h3v3h-3z"/><path fill="#CCC" d="M66 48h3v3h-3z"/></symbol><symbol fill="none" viewBox="0 0 10 16" id="icon-phone" xmlns="http://www.w3.org/2000/svg"><path fill-rule="evenodd" clip-rule="evenodd" d="M0 .5h10v15H0V.5zm1 1h8v11H1v-11zM6 14c0-.28-.45-.5-1-.5s-1 .22-1 .5.45.5 1 .5 1-.22 1-.5z" fill="#7048B8"/></symbol><symbol fill="none" viewBox="0 0 172 211" id="icon-popup-logo" xmlns="http://www.w3.org/2000/svg"><path fill-rule="evenodd" clip-rule="evenodd" d="M45.265 0H16.173v29.2h29.092V0zm20.829 0v14.6c50.001 0 90.535 40.69 90.535 90.885 0 50.194-40.534 90.885-90.535 90.885v14.599c58.033 0 105.078-47.227 105.078-105.484C171.174 47.227 124.128 0 66.094 0zM46.702 58.072v46.706l11.796-24.306-10.614-22.4h-1.182zM44.06 191.559v-70.724l-11.767 35.362 11.767 35.362zm-26.321-70.724v70.725l11.767-35.363-11.767-35.362zm-2.644-62.763h-1.181L3.3 80.472l11.795 24.306V58.072zm22.996 0V52.08H23.706v5.992h-2.082l9.274 19.489 9.274-19.49H38.09zm-5.727 22.566l11.457 24.14h.239V58.072h-.957l-10.74 22.566zm-8.657 32.721v5.992h-3.675l10.867 32.658 10.868-32.658H38.09v-5.992H23.706zm14.384-2.654v-5.927h2.8l-9.992-21.061-9.991 21.061h2.8v5.927H38.09zm-8.657-30.067l-10.74-22.566h-.956v46.706h.239l11.456-24.14zm21.378-22.566l10.35 21.842-.01 1.159-11.667 23.705h3.187v14.573h-5.969v77.012h5.969V211H38.09v-14.637h4.78l-11.972-35.978-11.972 35.978h4.78V211H9.126v-14.637h5.968v-77.012H9.126v-14.573h3.187L.645 81.073l-.01-1.16 10.35-21.841h-1.86V43.435h14.581v5.991H38.09v-5.99h14.581v14.636h-1.86z" fill="#FAFAFA"/></symbol><symbol fill="none" viewBox="0 0 46 68" id="icon-schedule" xmlns="http://www.w3.org/2000/svg"><g clip-path="url(#tclip0)" fill-rule="evenodd" clip-rule="evenodd"><path d="M28.573 46.264l.278.279.836 1.254.279.278.279.14-2.23-1.115c-.14-.14-.279-.14-.418-.279l.976-.557zM9.76 21.043v-.418l.14-.28.139-.278.139-.279.14-.278.139-.14.14-.139 1.532-.14-.14.14-.139.14-.14.278-.139.279-.139.279-1.672.836z" fill="#4B218A"/><path d="M11.435 20.207c.278-.836.836-1.254 1.393-.836l-1.393.836zm19.368 24.664c2.09 2.648-.139 4.46-1.254 2.787l-.975-1.393 2.23-1.394z" fill="#7D46BC"/><path d="M10.876 58.804l-1.255-.697-.139-.14v-.695l1.533-.836-.279 1.393-.14.28v.278l.14.279.14.139z" fill="#4B218A"/><path d="M14.223 54.482l-.558 2.509c-.697 2.23-3.483 2.787-2.926.836l.418-1.394 3.066-1.95z" fill="#7D46BC"/><path d="M22.306 58.664l-1.255-.696-.278-.14-.14-.139V9.197l.14-.418.279-.278.139-.28.279-.278.139-.14.278-.139.28-.139.278-.14h.14l.278.14 1.254.697h-.697l-.139.14-.279.139-.278.278-.28.279-.138.279-.14.278-.14.279-.139.418v47.796l.14.278.14.14.139.138z" fill="#4B218A"/><path d="M21.886 10.591c0-1.95 2.647-3.623 2.647-1.532v47.098c0 1.95-2.648 3.484-2.648 1.533v-47.1z" fill="#7D46BC"/><path d="M3.911 59.5l-.975-.697-.14-.139-.278-.14-.14-.139-.14-.278v-.279l-.138-.279V28.148l.975.557v29.402l.14.278.139.28v.278l.278.14.14.278.14.14z" fill="#BAB8B8"/><path d="M3.075 28.706l-.975-.557 40.27-23.41.976.696L3.075 28.706z" fill="#E6E6E6"/><path d="M43.343 5.433v28.844c0 1.951-1.393 4.32-3.065 5.295-11.287 6.41-22.713 13.099-34.14 19.648-1.672.975-3.065.14-3.065-1.672V28.704l40.27-23.27z" fill="#E6E6E6"/><path d="M26.202 30.238l-.697-.418 8.361-14.353.279-.418.14-.278.278-.279.278-.14h.28l.139-.139.278.14h.14l.696.418h-.836l-.278.278-.14.14-.279.278-.278.418-8.36 14.353zM10.039 48.214l-.697-.419-.14-.139-.138-.14-.14-.139v-.975l.14-.279.278-.418.697.418-.279.418-.14.28v.974l.14.14.14.279h.139zm.004-2.092l-.697-.418.278-.697.418-.696.418-.558.28-.697.417-.557.279-.557.418-.697.279-.557.418-.558.278-.557.28-.557.417-.558.279-.557.279-.558.278-.557.418-.557.279-.558.279-.557.418-.557.278-.558.279-.557.279-.558.418-.557.278-.557.418-.558.28-.557.417-.697.279-.557.418-.697.279-.557.418-.697.418-.697.696.418-.418.697-.278.697-.418.696-.418.558-.28.557-.417.697-.279.557-.278.558-.419.557-.278.557-.418.558-.279.557-.279.557-.418.558-.278.557-.28.558-.278.557-.418.557-.278.558-.28.557-.417.558-.279.557-.279.557-.418.558-.278.696-.279.558-.418.557-.418.697-.279.557-.418.697-.279.557-.418.697z" fill="#9C5500"/><path d="M20.909 27.171l-.697-.418v.14h.14l.139.139h.139l.14.14.139.139h.278l.14.139.278.14.14.139.278.139.14.14.278.139.28.139.138.14.28.139.278.139.278.14.14.139h.278l.14.139.279.14.139.139.14.14h.139l.139.138h.14l.139.14h.139l.697.418h-.14l-.139-.14-.14-.139h-.139l-.278-.14-.14-.139-.278-.139h-.14l-.278-.14-.14-.139-.279-.139-.278-.14-.14-.139-.278-.139-.279-.14-.14-.139-.278-.139-.279-.14-.139-.139-.279-.14-.139-.138h-.14l-.278-.14-.14-.14h-.139v-.138h-.278v-.14z" fill="#C43E3F"/><path d="M26.208 30.237l8.36-14.492c1.255-2.09 3.066-.975 1.952 1.115-4.18 7.246-6.132 10.59-10.173 17.697l-5.434-2.926c-3.484 6.13-5.434 9.475-9.058 15.606-1.114 2.09-3.065.976-1.81-1.115 4.18-7.245 6.827-11.705 10.868-18.95 0 0 4.877 2.926 5.295 3.065z" fill="#FFA800"/><path d="M3.492 29.541L.844 28.008h-.14v-.278l2.648 1.532v.279h.14z" fill="#2C3E50"/><path d="M3.352 29.262L.705 27.73v-3.205l2.647 1.532v3.205zm0-3.205L.705 24.524v-.14l.14-.139v-.279h.139l.139-.139 2.647 1.394-.139.14v.139h-.14v.139l-.139.14v.278z" fill="#4B218A"/><path d="M3.768 25.221L1.12 23.828l1.254-.697c12.82-7.385 25.64-14.77 38.46-22.295L42.226 0l2.647 1.533-1.254.836-1.254.697-1.393.696-1.255.836c-11.147 6.41-22.295 12.82-33.303 19.23l-1.393.697-1.254.696z" fill="#4B218A"/><path d="M44.877 1.533L42.229 0h.419l2.508 1.533h-.28z" fill="#3D566E"/><path d="M4.048 29.4c-.418.14-.696.279-.696-.14v-3.204c0-.279.139-.697.418-.836C17.425 17.277 31.22 9.474 44.876 1.53c.279-.14.418 0 .418.279v3.205c0 .557-.418.697-.696.975L4.048 29.4z" fill="#7D46BC"/></g><defs><clipPath id="tclip0"><path fill="#fff" transform="translate(.705)" d="M0 0h44.59v68H0z"/></clipPath></defs></symbol></svg>